<?xml version="1.0" encoding="UTF-8" standalone="no"?>
<svg
   xmlns:dc="http://purl.org/dc/elements/1.1/"
   xmlns:cc="http://creativecommons.org/ns#"
   xmlns:rdf="http://www.w3.org/1999/02/22-rdf-syntax-ns#"
   xmlns:svg="http://www.w3.org/2000/svg"
   xmlns="http://www.w3.org/2000/svg"
   xmlns:sodipodi="http://sodipodi.sourceforge.net/DTD/sodipodi-0.dtd"
   xmlns:inkscape="http://www.inkscape.org/namespaces/inkscape"
   class="marks"
   width="1080"
   height="640"
   version="1.1"
   id="svg2"
   inkscape:version="0.48.4 r9939"
   sodipodi:docname="taghistory-locality-townland.svg">
  <metadata
     id="metadata243">
    <rdf:RDF>
      <cc:Work
         rdf:about="">
        <dc:format>image/svg+xml</dc:format>
        <dc:type
           rdf:resource="http://purl.org/dc/dcmitype/StillImage" />
        <dc:title></dc:title>
        <cc:license
           rdf:resource="http://creativecommons.org/licenses/by-sa/3.0/" />
      </cc:Work>
      <cc:License
         rdf:about="http://creativecommons.org/licenses/by-sa/3.0/">
        <cc:permits
           rdf:resource="http://creativecommons.org/ns#Reproduction" />
        <cc:permits
           rdf:resource="http://creativecommons.org/ns#Distribution" />
        <cc:requires
           rdf:resource="http://creativecommons.org/ns#Notice" />
        <cc:requires
           rdf:resource="http://creativecommons.org/ns#Attribution" />
        <cc:permits
           rdf:resource="http://creativecommons.org/ns#DerivativeWorks" />
        <cc:requires
           rdf:resource="http://creativecommons.org/ns#ShareAlike" />
      </cc:License>
    </rdf:RDF>
  </metadata>
  <sodipodi:namedview
     pagecolor="#ffffff"
     bordercolor="#666666"
     borderopacity="1"
     objecttolerance="10"
     gridtolerance="10"
     guidetolerance="10"
     inkscape:pageopacity="1"
     inkscape:pageshadow="2"
     inkscape:window-width="1920"
     inkscape:window-height="983"
     id="namedview241"
     showgrid="false"
     inkscape:zoom="1.0429825"
     inkscape:cx="320.39157"
     inkscape:cy="312.28923"
     inkscape:window-x="0"
     inkscape:window-y="34"
     inkscape:window-maximized="1"
     inkscape:current-layer="svg2"
     inkscape:snap-bbox="true"
     inkscape:bbox-nodes="false"
     inkscape:snap-page="true" />
  <defs
     id="defs4">
    <clipPath
       id="clip1">
      <rect
         x="0"
         y="0"
         width="1000"
         height="600"
         id="rect7" />
    </clipPath>
  </defs>
  <rect
     style="fill:#ffffff;fill-opacity:1;stroke:none"
     id="rect3099"
     width="1079.062"
     height="640"
     x="0.46900323"
     y="2.2434614e-13" />
  <g
     transform="translate(10,10)"
     id="g9">
    <g
       class="mark-group"
       id="g11">
      <g
         transform="translate(0,0)"
         id="g13">
        <rect
           class="background"
           width="1000"
           height="600"
           style="fill: none;"
           id="rect15" />
        <g
           class="mark-group"
           id="g17">
          <g
             transform="translate(0,600)"
             id="g19">
            <rect
               class="background"
               width="0"
               height="0"
               style="pointer-events: none; fill: none;"
               id="rect21" />
            <g
               class="mark-rule"
               style="pointer-events: none;"
               id="g23">
              <line
                 transform="translate(33.47505316537512,-600)"
                 x2="0"
                 y2="600"
                 style="fill: none; stroke: #000; stroke-opacity: 0.15; opacity: 1;"
                 id="line25" />
              <line
                 transform="translate(116.5050806815252,-600)"
                 x2="0"
                 y2="600"
                 style="fill: none; stroke: #000; stroke-opacity: 0.15; opacity: 1;"
                 id="line27" />
              <line
                 transform="translate(199.53510819767524,-600)"
                 x2="0"
                 y2="600"
                 style="fill: none; stroke: #000; stroke-opacity: 0.15; opacity: 1;"
                 id="line29" />
              <line
                 transform="translate(282.56513571382527,-600)"
                 x2="0"
                 y2="600"
                 style="fill: none; stroke: #000; stroke-opacity: 0.15; opacity: 1;"
                 id="line31" />
              <line
                 transform="translate(365.8226427574169,-600)"
                 x2="0"
                 y2="600"
                 style="fill: none; stroke: #000; stroke-opacity: 0.15; opacity: 1;"
                 id="line33" />
              <line
                 transform="translate(448.85267027356696,-600)"
                 x2="0"
                 y2="600"
                 style="fill: none; stroke: #000; stroke-opacity: 0.15; opacity: 1;"
                 id="line35" />
              <line
                 transform="translate(531.882697789717,-600)"
                 x2="0"
                 y2="600"
                 style="fill: none; stroke: #000; stroke-opacity: 0.15; opacity: 1;"
                 id="line37" />
              <line
                 transform="translate(614.9127253058671,-600)"
                 x2="0"
                 y2="600"
                 style="fill: none; stroke: #000; stroke-opacity: 0.15; opacity: 1;"
                 id="line39" />
              <line
                 transform="translate(698.1702323494587,-600)"
                 x2="0"
                 y2="600"
                 style="fill: none; stroke: #000; stroke-opacity: 0.15; opacity: 1;"
                 id="line41" />
              <line
                 transform="translate(781.2002598656088,-600)"
                 x2="0"
                 y2="600"
                 style="fill: none; stroke: #000; stroke-opacity: 0.15; opacity: 1;"
                 id="line43" />
              <line
                 transform="translate(864.2302873817588,-600)"
                 x2="0"
                 y2="600"
                 style="fill: none; stroke: #000; stroke-opacity: 0.15; opacity: 1;"
                 id="line45" />
              <line
                 transform="translate(947.2603148979089,-600)"
                 x2="0"
                 y2="600"
                 style="fill: none; stroke: #000; stroke-opacity: 0.15; opacity: 1;"
                 id="line47" />
            </g>
            <g
               class="mark-rule"
               style="pointer-events: none;"
               id="g49">
              <line
                 transform="translate(33.47505316537512,0)"
                 x2="0"
                 y2="6"
                 style="fill: none; stroke: #000; stroke-width: 1; opacity: 1;"
                 id="line51" />
              <line
                 transform="translate(116.5050806815252,0)"
                 x2="0"
                 y2="6"
                 style="fill: none; stroke: #000; stroke-width: 1; opacity: 1;"
                 id="line53" />
              <line
                 transform="translate(199.53510819767524,0)"
                 x2="0"
                 y2="6"
                 style="fill: none; stroke: #000; stroke-width: 1; opacity: 1;"
                 id="line55" />
              <line
                 transform="translate(282.56513571382527,0)"
                 x2="0"
                 y2="6"
                 style="fill: none; stroke: #000; stroke-width: 1; opacity: 1;"
                 id="line57" />
              <line
                 transform="translate(365.8226427574169,0)"
                 x2="0"
                 y2="6"
                 style="fill: none; stroke: #000; stroke-width: 1; opacity: 1;"
                 id="line59" />
              <line
                 transform="translate(448.85267027356696,0)"
                 x2="0"
                 y2="6"
                 style="fill: none; stroke: #000; stroke-width: 1; opacity: 1;"
                 id="line61" />
              <line
                 transform="translate(531.882697789717,0)"
                 x2="0"
                 y2="6"
                 style="fill: none; stroke: #000; stroke-width: 1; opacity: 1;"
                 id="line63" />
              <line
                 transform="translate(614.9127253058671,0)"
                 x2="0"
                 y2="6"
                 style="fill: none; stroke: #000; stroke-width: 1; opacity: 1;"
                 id="line65" />
              <line
                 transform="translate(698.1702323494587,0)"
                 x2="0"
                 y2="6"
                 style="fill: none; stroke: #000; stroke-width: 1; opacity: 1;"
                 id="line67" />
              <line
                 transform="translate(781.2002598656088,0)"
                 x2="0"
                 y2="6"
                 style="fill: none; stroke: #000; stroke-width: 1; opacity: 1;"
                 id="line69" />
              <line
                 transform="translate(864.2302873817588,0)"
                 x2="0"
                 y2="6"
                 style="fill: none; stroke: #000; stroke-width: 1; opacity: 1;"
                 id="line71" />
              <line
                 transform="translate(947.2603148979089,0)"
                 x2="0"
                 y2="6"
                 style="fill: none; stroke: #000; stroke-width: 1; opacity: 1;"
                 id="line73" />
            </g>
            <g
               class="mark-rule"
               style="pointer-events: none;"
               id="g75" />
            <g
               class="mark-text"
               id="g77">
              <text
                 text-anchor="middle"
                 transform="translate(33.47505316537512,19)"
                 style="font: 11px sans-serif; fill: #000; opacity: 1;"
                 id="text79">2005</text>
              <text
                 text-anchor="middle"
                 transform="translate(116.5050806815252,19)"
                 style="font: 11px sans-serif; fill: #000; opacity: 1;"
                 id="text81">2006</text>
              <text
                 text-anchor="middle"
                 transform="translate(199.53510819767524,19)"
                 style="font: 11px sans-serif; fill: #000; opacity: 1;"
                 id="text83">2007</text>
              <text
                 text-anchor="middle"
                 transform="translate(282.56513571382527,19)"
                 style="font: 11px sans-serif; fill: #000; opacity: 1;"
                 id="text85">2008</text>
              <text
                 text-anchor="middle"
                 transform="translate(365.8226427574169,19)"
                 style="font: 11px sans-serif; fill: #000; opacity: 1;"
                 id="text87">2009</text>
              <text
                 text-anchor="middle"
                 transform="translate(448.85267027356696,19)"
                 style="font: 11px sans-serif; fill: #000; opacity: 1;"
                 id="text89">2010</text>
              <text
                 text-anchor="middle"
                 transform="translate(531.882697789717,19)"
                 style="font: 11px sans-serif; fill: #000; opacity: 1;"
                 id="text91">2011</text>
              <text
                 text-anchor="middle"
                 transform="translate(614.9127253058671,19)"
                 style="font: 11px sans-serif; fill: #000; opacity: 1;"
                 id="text93">2012</text>
              <text
                 text-anchor="middle"
                 transform="translate(698.1702323494587,19)"
                 style="font: 11px sans-serif; fill: #000; opacity: 1;"
                 id="text95">2013</text>
              <text
                 text-anchor="middle"
                 transform="translate(781.2002598656088,19)"
                 style="font: 11px sans-serif; fill: #000; opacity: 1;"
                 id="text97">2014</text>
              <text
                 text-anchor="middle"
                 transform="translate(864.2302873817588,19)"
                 style="font: 11px sans-serif; fill: #000; opacity: 1;"
                 id="text99">2015</text>
              <text
                 text-anchor="middle"
                 transform="translate(947.2603148979089,19)"
                 style="font: 11px sans-serif; fill: #000; opacity: 1;"
                 id="text101">2016</text>
            </g>
            <g
               class="mark-path"
               style="pointer-events: none;"
               id="g103">
              <path
                 transform="translate(0.5,0.5)"
                 d="M0,6V0H1000V6"
                 style="fill: none; stroke: #000; stroke-width: 1;"
                 id="path105" />
            </g>
            <g
               class="mark-text"
               id="g107" />
          </g>
        </g>
        <g
           class="mark-group"
           id="g109">
          <g
             transform="translate(1000,0)"
             id="g111">
            <rect
               class="background"
               width="0"
               height="0"
               style="pointer-events: none; fill: none;"
               id="rect113" />
            <g
               class="mark-rule"
               style="pointer-events: none;"
               id="g115">
              <line
                 transform="translate(-1000,600.5)"
                 x2="1000"
                 y2="0"
                 style="fill: none; stroke: #000; stroke-opacity: 0.15; opacity: 1;"
                 id="line117" />
              <line
                 transform="translate(-1000,552.8213540735443)"
                 x2="1000"
                 y2="0"
                 style="fill: none; stroke: #000; stroke-opacity: 0.15; opacity: 1;"
                 id="line119" />
              <line
                 transform="translate(-1000,505.1427081470886)"
                 x2="1000"
                 y2="0"
                 style="fill: none; stroke: #000; stroke-opacity: 0.15; opacity: 1;"
                 id="line121" />
              <line
                 transform="translate(-1000,457.46406222063297)"
                 x2="1000"
                 y2="0"
                 style="fill: none; stroke: #000; stroke-opacity: 0.15; opacity: 1;"
                 id="line123" />
              <line
                 transform="translate(-1000,409.78541629417725)"
                 x2="1000"
                 y2="0"
                 style="fill: none; stroke: #000; stroke-opacity: 0.15; opacity: 1;"
                 id="line125" />
              <line
                 transform="translate(-1000,362.10677036772154)"
                 x2="1000"
                 y2="0"
                 style="fill: none; stroke: #000; stroke-opacity: 0.15; opacity: 1;"
                 id="line127" />
              <line
                 transform="translate(-1000,314.4281244412659)"
                 x2="1000"
                 y2="0"
                 style="fill: none; stroke: #000; stroke-opacity: 0.15; opacity: 1;"
                 id="line129" />
              <line
                 transform="translate(-1000,266.74947851481016)"
                 x2="1000"
                 y2="0"
                 style="fill: none; stroke: #000; stroke-opacity: 0.15; opacity: 1;"
                 id="line131" />
              <line
                 transform="translate(-1000,219.0708325883545)"
                 x2="1000"
                 y2="0"
                 style="fill: none; stroke: #000; stroke-opacity: 0.15; opacity: 1;"
                 id="line133" />
              <line
                 transform="translate(-1000,171.3921866618988)"
                 x2="1000"
                 y2="0"
                 style="fill: none; stroke: #000; stroke-opacity: 0.15; opacity: 1;"
                 id="line135" />
              <line
                 transform="translate(-1000,123.71354073544313)"
                 x2="1000"
                 y2="0"
                 style="fill: none; stroke: #000; stroke-opacity: 0.15; opacity: 1;"
                 id="line137" />
              <line
                 transform="translate(-1000,76.0348948089874)"
                 x2="1000"
                 y2="0"
                 style="fill: none; stroke: #000; stroke-opacity: 0.15; opacity: 1;"
                 id="line139" />
              <line
                 transform="translate(-1000,28.35624888253175)"
                 x2="1000"
                 y2="0"
                 style="fill: none; stroke: #000; stroke-opacity: 0.15; opacity: 1;"
                 id="line141" />
            </g>
            <g
               class="mark-rule"
               style="pointer-events: none;"
               id="g143">
              <line
                 transform="translate(0,600.5)"
                 x2="6"
                 y2="0"
                 style="fill: none; stroke: #000; stroke-width: 1; opacity: 1;"
                 id="line145" />
              <line
                 transform="translate(0,552.8213540735443)"
                 x2="6"
                 y2="0"
                 style="fill: none; stroke: #000; stroke-width: 1; opacity: 1;"
                 id="line147" />
              <line
                 transform="translate(0,505.1427081470886)"
                 x2="6"
                 y2="0"
                 style="fill: none; stroke: #000; stroke-width: 1; opacity: 1;"
                 id="line149" />
              <line
                 transform="translate(0,457.46406222063297)"
                 x2="6"
                 y2="0"
                 style="fill: none; stroke: #000; stroke-width: 1; opacity: 1;"
                 id="line151" />
              <line
                 transform="translate(0,409.78541629417725)"
                 x2="6"
                 y2="0"
                 style="fill: none; stroke: #000; stroke-width: 1; opacity: 1;"
                 id="line153" />
              <line
                 transform="translate(0,362.10677036772154)"
                 x2="6"
                 y2="0"
                 style="fill: none; stroke: #000; stroke-width: 1; opacity: 1;"
                 id="line155" />
              <line
                 transform="translate(0,314.4281244412659)"
                 x2="6"
                 y2="0"
                 style="fill: none; stroke: #000; stroke-width: 1; opacity: 1;"
                 id="line157" />
              <line
                 transform="translate(0,266.74947851481016)"
                 x2="6"
                 y2="0"
                 style="fill: none; stroke: #000; stroke-width: 1; opacity: 1;"
                 id="line159" />
              <line
                 transform="translate(0,219.0708325883545)"
                 x2="6"
                 y2="0"
                 style="fill: none; stroke: #000; stroke-width: 1; opacity: 1;"
                 id="line161" />
              <line
                 transform="translate(0,171.3921866618988)"
                 x2="6"
                 y2="0"
                 style="fill: none; stroke: #000; stroke-width: 1; opacity: 1;"
                 id="line163" />
              <line
                 transform="translate(0,123.71354073544313)"
                 x2="6"
                 y2="0"
                 style="fill: none; stroke: #000; stroke-width: 1; opacity: 1;"
                 id="line165" />
              <line
                 transform="translate(0,76.0348948089874)"
                 x2="6"
                 y2="0"
                 style="fill: none; stroke: #000; stroke-width: 1; opacity: 1;"
                 id="line167" />
              <line
                 transform="translate(0,28.35624888253175)"
                 x2="6"
                 y2="0"
                 style="fill: none; stroke: #000; stroke-width: 1; opacity: 1;"
                 id="line169" />
            </g>
            <g
               class="mark-rule"
               style="pointer-events: none;"
               id="g171" />
            <g
               class="mark-text"
               id="g173">
              <text
                 text-anchor="start"
                 transform="translate(9,603.5)"
                 style="font: 11px sans-serif; fill: #000; opacity: 1;"
                 id="text175">0</text>
              <text
                 text-anchor="start"
                 transform="translate(9,555.8213540735443)"
                 style="font: 11px sans-serif; fill: #000; opacity: 1;"
                 id="text177">5,000</text>
              <text
                 text-anchor="start"
                 transform="translate(9,508.1427081470886)"
                 style="font: 11px sans-serif; fill: #000; opacity: 1;"
                 id="text179">10,000</text>
              <text
                 text-anchor="start"
                 transform="translate(9,460.46406222063297)"
                 style="font: 11px sans-serif; fill: #000; opacity: 1;"
                 id="text181">15,000</text>
              <text
                 text-anchor="start"
                 transform="translate(9,412.78541629417725)"
                 style="font: 11px sans-serif; fill: #000; opacity: 1;"
                 id="text183">20,000</text>
              <text
                 text-anchor="start"
                 transform="translate(9,365.10677036772154)"
                 style="font: 11px sans-serif; fill: #000; opacity: 1;"
                 id="text185">25,000</text>
              <text
                 text-anchor="start"
                 transform="translate(9,317.4281244412659)"
                 style="font: 11px sans-serif; fill: #000; opacity: 1;"
                 id="text187">30,000</text>
              <text
                 text-anchor="start"
                 transform="translate(9,269.74947851481016)"
                 style="font: 11px sans-serif; fill: #000; opacity: 1;"
                 id="text189">35,000</text>
              <text
                 text-anchor="start"
                 transform="translate(9,222.0708325883545)"
                 style="font: 11px sans-serif; fill: #000; opacity: 1;"
                 id="text191">40,000</text>
              <text
                 text-anchor="start"
                 transform="translate(9,174.3921866618988)"
                 style="font: 11px sans-serif; fill: #000; opacity: 1;"
                 id="text193">45,000</text>
              <text
                 text-anchor="start"
                 transform="translate(9,126.71354073544313)"
                 style="font: 11px sans-serif; fill: #000; opacity: 1;"
                 id="text195">50,000</text>
              <text
                 text-anchor="start"
                 transform="translate(9,79.0348948089874)"
                 style="font: 11px sans-serif; fill: #000; opacity: 1;"
                 id="text197">55,000</text>
              <text
                 text-anchor="start"
                 transform="translate(9,31.35624888253175)"
                 style="font: 11px sans-serif; fill: #000; opacity: 1;"
                 id="text199">60,000</text>
            </g>
            <g
               class="mark-path"
               style="pointer-events: none;"
               id="g201">
              <path
                 transform="translate(0.5,0.5)"
                 d="M6,0H0V600H6"
                 style="fill: none; stroke: #000; stroke-width: 1;"
                 id="path203" />
            </g>
            <g
               class="mark-text"
               id="g205" />
          </g>
        </g>
        <g
           class="mark-group"
           id="g207">
          <g
             transform="translate(0,0)"
             clip-path="url(#clip1)"
             id="g209">
            <rect
               class="background"
               width="1000"
               height="600"
               style="fill: none;"
               id="rect211" />
            <g
               class="mark-line"
               id="g213">
              <path
                 d="M0,600H553.0027312103036V599.9904642708148H565.286625692145V599.9523213540735H631.4831681776235V599.9904642708148H632.620565814831V599.9713928124442H632.8480453422726V598.1786757256094H633.0755248697141V598.0833184337565H633.3030043971556V597.4825674950831H633.5304839245971V597.3109243697479H634.2129225069216V597.2727814530067H634.4404020343632V596.7864592645569H634.6678815618046V596.6052804100364H634.8953610892462V596.3764229095893H635.8052791990121V595.9663865546219H636.0327587264537V595.937779367066H642.1747059673744V595.9473150962513H643.767062659465V595.90917217951H643.9945421869064V595.8614935335837H644.222021714348V595.7470647833601H644.4495012417894V595.6612432206925H644.676980769231V595.5277430120984H644.9044602966725V595.4323857202455H645.1319398241139V595.413314261875H645.3594193515555V595.3942428035044H645.5868988789969V595.2988855116514H645.8143784064384V595.1463138446868H646.0418579338799V595.0604922820191H646.2693374613215V594.7744204064604H646.4968169887629V594.5455629060135H646.7242965162044V594.4597413433459H646.951776043646V594.3929912390488H647.1792555710874V594.2499553012694H647.406735098529V594.1927409261576H647.6342146259705V594.0210978008224H647.861694153412V593.744561654449H648.0891736808535V593.4298825913344H648.3166532082951V593.2010250908874H648.5441327357365V593.0103105071817H648.771612263178V592.8291316526611H648.9990917906196V592.5430597771023H649.226571318061V592.5049168603612H649.4540508455026V592.4477024852495H649.681530372944V592.3428094642112H649.9090099003856V592.2379164431729H650.1364894278271V592.1902377972466H650.3639689552685V592.0758090470231H650.5914484827101V591.780201442279H650.8189280101516V591.7325227963526H651.0464075375932V591.6467012336849H651.2738870650346V591.3510936289409H651.5013665924762V591.2175934203469H651.7288461199176V590.9410572739735H651.9563256473592V590.6073067524882H652.1838051748007V590.5596281065618H652.4112847022421V590.4928780022648H652.6387642296837V590.4070564395971H652.8662437571252V590.273556231003H653.0937232845667V590.1686632099648H653.3212028120082V590.0256272721855H653.5486823394498V589.8825913344061H653.7761618668912V589.7014124798856H654.0036413943327V589.3295190416592H654.2311209217743V589.1101972703975H654.4586004492157V588.995768520174H654.6860799766572V588.9576256034328H654.9135595040987V588.9480898742476H655.1410390315402V588.8622683115799H655.3685185589817V588.7955182072828H655.5959980864233V588.7573752905417H655.8234776138647V588.7383038321711H656.2784366687478V588.6620179986888H656.5059161961892V588.5666607068359H656.7333957236308V588.4140890398712H656.9608752510723V588.2138387269802H657.1883547785138V588.2043029977948H657.6433138333969V588.1947672686096H658.0982728882798V588.1566243518685H658.3257524157214V588.0898742475714H658.7807114706044V588.0231241432743H659.0081909980458V587.9563740389773H659.2356705254874V587.6130877883068H659.4631500529289V587.3842302878599H659.6906295803703V587.0981584123011H659.9181091078119V586.7167292448894H660.1455886352534V586.3925144525896H660.373068162695V585.9061922641397H660.6005476901364V585.6677990345074H660.828027217578V585.3626557005781H661.0555067450194V584.9526193456106H661.2829862724609V584.3041897610108H661.5104657999025V584.1230109064903H661.7379453273439V584.018117885452H661.9654248547855V583.8750819476727H662.4203839096685V583.7701889266344H662.64786343711V583.360152571667H662.8753429645516V583.035937779367H663.102822491993V582.9405804875141H663.3303020194345V582.7784730913643H663.7852610743174V582.7594016329937H664.012740601759V582.4828654866202H664.467699656642V582.0346862149115H666.7424949310571V581.8249001728351H666.9699744584985V581.4530067346087H667.1974539859401V581.3862566303117H667.4249335133816V581.2241492341617H667.6524130408231V581.1573991298646H667.8798925682646V581.0811132963823H668.1073720957062V581.0715775671971H668.5623311505892V580.1656832945945H668.7898106780307V580.0703260027416H669.4722492603552V578.973717146433H669.6997287877967V578.9546456880624H670.1546878426798V578.4873949579832H670.6096468975627V578.4969306871685H671.7470445347703V578.4492520412421H671.9745240622118V578.382501936945H672.4294831170948V577.9629298527922H672.6569626445363V577.9152512068657H675.1592374463928V577.8675725609393H675.3867169738344V577.8294296441982H675.6141965012758V577.8198939150128H675.8416760287174V577.3812503724895H676.7515941384834V576.9902854758925H676.979073665925V576.9330711007808H677.2065531933664V576.9044639132248H677.6615122482494V576.8949281840396H677.8889917756909V576.8091066213719H678.1164713031325V576.2464985994397H678.3439508305739V576.1606770367721H678.798909885457V576.0748554741045H679.0263894128985V575.960426723881H679.25386894034V575.6457476607665H679.4813484677816V575.4741045354311H679.708827995223V575.2166398474284H679.9363075226645V574.9210322426843H680.1637870501061V574.7589248465343H680.3912665775475V574.7493891173491H680.6187461049891V574.7112462006079H680.8462256324306V574.5777459920138H681.0737051598721V574.320281304011H681.3011846873136V573.9102449490434H681.528664214755V573.6813874485964H681.7561437421966V573.6527802610406H682.893541379404V573.6241730734847H683.1210209068456V573.5860301567435H683.3485004342871V573.3953155730377H683.5759799617285V573.3476369271112H683.8034594891701V572.7373502592527H684.2584185440531V572.4608141128792H684.4858980714946V572.2605637999881H684.7133775989362V572.0412420287264H684.9408571263776V571.8791346325764H685.1683366538192V571.8219202574646H685.3958161812607V571.7647058823529H685.6232957087021V571.5739912986471H685.8507752361437V571.5453841110913H686.0782547635852V571.440491090053H686.5332138184682V571.373740985756H686.7606933459098V571.278383693903H687.2156524007927V571.1067405685678H687.4431319282343V570.9732403599737H687.6706114556757V570.715775671971H687.8980909831173V570.6585612968591H688.1255705105588V570.553668275821H688.8080090928834V570.2675964002623H689.0354886203248V569.9052386912211H689.2629681477663V569.8766315036653H689.4904476752079V569.8194171285536H689.7179272026493V569.8098813993682H689.9454067300909V569.7622027534418H690.4003657849739V569.7240598367006H690.8553248398568V569.5810238989212H691.0828043672984V569.5619524405507H691.3102838947398V569.4570594195125H691.5377634221813V569.3235592109185H691.7652429496228V569.2758805649919H691.9927224770644V569.2282019190656H692.4476815319474V568.9612015018773H692.6751610593889V568.6369867095775H692.9026405868303V568.0839144168306H693.1301201142719V568.06484295846H693.5850791691549V568.0457715000894H693.8125586965964V568.0553072292747H694.7224768063625V567.9599499374218H696.5423130258945V567.7787710829012H696.7697925533361V567.6452708743071H696.9972720807775V567.4831634781572H697.2247516082191V567.4164133738602H697.4522311356606V567.3305918111926H698.134669717985V567.2447702485249H698.3621492454266V567.2256987901544H699.0445878277511V567.2352345193397H699.7270264100757V567.1112700399309H699.9545059375172V566.9968412897074H700.1819854649586V566.6916979557781H700.4094649924001V566.7107694141487H701.5468626296076V566.5963406639252H702.2293012119321V566.4342332677752H702.4567807393737V566.329340246737H702.6842602668152V566.3007330591811H703.3666988491398V566.1767685797723H707.4613303430868V566.1290899338459H708.5987279802945V566.1195542046605H709.0536870351774V566.0909470171048H714.740675221215V566.0718755587342H715.8780728584227V565.9193038917695H716.1055523858641V565.8906967042136H716.3330319133057V565.8334823291018H716.7879909681886V565.804875141546H717.0154704956302V565.7285893080636H718.1528681328377V565.7190535788784H723.3848972639923V565.6046248286549H724.0673358463168V565.5855533702843H724.2948153737584V565.2994814947256H724.7497744286414V565.2899457655402H725.2047334835245V565.2518028487991H725.4322130109659V565.0801597234638H725.6596925384074V564.9275880564992H726.1146515932904V564.8989808689433H726.342131120732V564.8417664938315H726.797090175615V564.5461588890876H727.0245697030565V563.773764825079H727.2520492304981V562.9918350318851H727.4795287579395V562.5055128434352H727.707008285381V562.1622265927647H727.9344878128225V562.1431551343942H728.1619673402639V561.7903331545384H728.3894468677055V561.6949758626855H728.616926395147V561.6472972167591H729.07188545003V561.4756540914237H729.2993649774714V561.4279754454974H729.526844504913V561.3993682579414H729.7543240323545V561.2467965909768H730.2092830872375V561.056082007271H730.4367626146791V560.8749031527504H730.6642421421205V560.6365099231182H730.8917216695621V560.3790452351153H731.1192011970036V560.302759401633H731.346680724445V560.1215805471124H731.5741602518866V560.0834376303713H731.8016397793281V559.9690088801478H732.2565988342111V559.9213302342213H732.4840783616527V559.9022587758508H732.7115578890941V559.711544192145H733.8489555263017V559.7306156505156H734.7588736360677V559.7020084629596H734.9863531635092V559.5685082543656H735.2138326909508V559.5303653376244H735.4413122183922V559.482686691698H735.6687917458338V559.4540795041421H735.8962712732753V559.3968651290303H736.3512303281583V559.2156862745098H736.5787098555998V559.0440431491746H736.8061893830413V559.0249716908039H737.4886279653657V559.0154359616187H737.7161074928073V558.9868287740628H742.2656980416374V558.9772930448776H743.403095678845V558.9677573156922H744.767972843494V558.9200786697658H744.9954523709356V558.9010072113953H745.9053704807015V558.8819357530245H746.1328500081431V558.8533285654687H746.3603295355845V558.7484355444305H746.587809063026V558.6816854401335H747.0427681179091V558.6626139817629H747.952686227675V558.5291137731689H748.6351248099996V558.4528279396866H750.0000019746486V558.4337564813159H750.6824405569732V558.3860778353895H750.9099200844147V558.3765421062042H751.1373996118563V558.2335061684248H751.8198381941808V558.1953632516836H752.2747972490638V558.1572203349425H752.5022767765053V558.0523273139042H752.7297563039468V557.9951129387925H752.9572358313883V557.9760414804219H753.1847153588297V557.9665057512366H754.0946334685958V557.9569700220513H755.0045515783619V557.9474342928661H755.2320311058033V557.9188271053102H755.4595106332448V557.8616127301984H755.6869901606863V557.6708981464926H755.9144696881278V557.6232195005662H756.1419492155693V557.4897192919722H756.3694287430109V557.0510757494487H756.5969082704523V556.9652541867811H756.8243877978939V556.8985040824841H757.0518673253354V556.8222182490017H757.2793468527768V556.5933607485548H757.5068263802184V556.5266106442577H757.7343059076599V556.4789319983312H757.9617854351014V556.4503248107754H758.1892649625429V556.2786816854401H758.6442240174259V556.2596102270695H758.8717035448674V556.1356457476608H759.099183072309V556.1070385601049H759.3266625997504V555.849573872102H759.554142127192V555.8400381429168H759.7816216546335V555.7351451218785H760.009101182075V555.6779307467668H760.2365807095165V555.6016449132845H760.6915397643995V555.5921091840992H760.919019291841V555.4586089755052H761.1464988192826V555.4300017879492H761.373978346724V555.3441802252815H761.6014578741656V555.1439299123905H761.828937401607V554.8864652243876H762.0564169290486V554.8197151200906H762.2838964564901V554.7911079325347H762.5113759839315V554.4573574110495H762.7388555113731V554.1617498063055H762.9663350388146V553.8947493891174H763.1938145662562V553.8756779307467H763.8762531485806V553.8375350140057H764.1037326760222V553.7707849097086H764.3312122034637V553.7135705345968H764.558691730905V553.6277489719292H764.7861712583466V553.6086775135586H765.2411303132296V553.4370343882234H765.4686098406711V553.3607485547411H765.6960893681127V553.0365337624411H765.9235688955541V552.7409261576971H766.1510484229956V552.6264974074736H766.3785279504372V552.3499612611001H766.6060074778786V552.2355325108767H766.8334870053202V552.1878538649503H767.0609665327617V551.9685320936885H767.2884460602032V551.7396745932416H767.5159255876447V551.6729244889445H767.7434051150863V551.5966386554621H767.9708846425277V551.4726741760534H768.1983641699692V551.3391739674594H768.6533232248522V551.329638238274H768.8808027522938V551.3201025090888H769.1082822797352V551.3010310507182H769.3357618071768V551.262888133977H769.5632413346183V551.2247452172359H770.0182003895013V551.19613802968H770.7006389718258V551.1770665713094H770.9281184992674V551.1198521961977H772.0655161364749V551.0721735502711H772.2929956639164V551.0531020919007H772.7479547187994V550.9100661541213H772.975434246241V550.8719232373801H773.4303933011239V550.6907443828595H773.6578728285654V550.6812086536743H773.8853523560068V550.4046725073008H774.1128318834484V550.1567435484833H774.3403114108899V549.8420644853686H774.5677909383314V549.6036712557363H774.7952704657729V549.5369211514393H775.0227499932145V549.2508492758806H775.2502295206559V549.002920317063H775.4777090480974V548.8789558376543H775.705188575539V548.4498480243161H775.9326681029804V548.3068120865368H776.160147630422V547.8777042731987H776.3876271578634V547.8395613564575H776.615106685305V547.8204898980869H776.8425862127465V547.7728112521604H777.0700657401879V547.725132606234H777.2975452676295V547.6869896894929H777.525024795071V547.5153465641575H777.7525043225126V547.3913820847488H777.979983849954V547.3437034388223H778.2074633773956V547.1339173967459H778.434942904837V546.9241313546695H778.6624224322786V546.6571309374814H778.8899019597201V546.4378091662196H779.1173814871615V546.4092019786639H779.3448610146031V546.3519876035521H779.5723405420446V546.123130103105H779.7998200694861V546.0087013528815H780.0272995969276V545.9038083318434H780.2547791243692V545.8084510399905H780.4822586518106V545.5795935395435H780.7097381792521V545.5414506228022H780.9372177066937V545.4174861433935H781.1646972341351V545.3221288515406H781.6196562890182V545.2839859347995H781.8471358164597V545.2077001013172H782.7570539262257V544.9788426008702H782.9845334536672V544.9120924965731H783.2120129811086V544.8358066630908H783.6669720359916V544.7499851004231H783.8944515634332V544.7309136420525H784.5768901457577V544.7213779128673H784.8043696731992V544.7118421836819H785.9417673104068V544.5688062459026H786.6242058927313V544.5592705167173H786.8516854201728V544.5401990583467H787.5341240024974V544.4353060373085H787.7616035299388V544.416234578938H788.2165625848219V544.3494844746409H788.4440421122633V544.2731986411586H788.6715216397049V543.9394481196734H788.8990011671464V543.8250193694499H789.1264806945879V543.5103403063353H789.3539602220294V543.1289111389236H789.581439749471V543.0621610346266H789.8089192769124V542.4232671792121H790.0363988043539V542.2802312414327H790.2638783317955V542.2134811371358H790.4913578592369V541.9369449907623H790.7188373866785V541.5936587400918H790.94631691412V541.402944156386H791.1737964415615V540.7831217593421H791.401275969003V540.0679420704452H791.6287554964446V539.9916562369629H791.856235023886V539.9344418618512H792.0837145513274V539.8772274867393H792.311194078769V539.8104773824424H792.5386736062104V539.7055843614041H792.766153133652V539.667441444663H792.9936326610934V539.600691340366H793.221112188535V539.4862625901425H793.4485917159765V539.4290482150307H793.6760712434179V539.2574050896955H793.9035507708595V539.0571547768043H794.131030298301V538.7996900888015H794.3585098257425V538.618511234281H794.585989353184V538.3515108170928H794.8134688806256V538.1607962333869H795.040948408067V537.8842600870136H795.2684279355086V536.9879015435962H795.4959074629501V536.9688300852256H795.7233869903915V536.3490076881816H795.9508665178331V535.8626854997318H796.1783460452746V535.7673282078789H796.4058255727161V534.7374694558675H796.6333051001576V533.8697181000059H796.8607846275992V533.0973240359974H797.0882641550406V533.049645390071H797.3157436824821V532.9638238274033H797.5432232099237V532.9447523690327H797.7707027373651V532.2867870552476H797.9981822648067V532.1151439299124H798.2256617922482V531.9625722629478H798.4531413196897V531.8958221586507H798.6806208471312V531.7051075749448H798.9081003745728V531.6955718457596H799.1355799020142V531.5334644496096H799.3630594294557V531.4190356993861H799.5905389568973V531.3141426783479H799.8180184843387V531.0852851779009H800.0454980117803V530.8182847607128H800.2729775392218V530.5989629894511H800.5004570666633V530.5322128851541H800.7279365941048V530.3891769473747H800.9554161215462V529.9886763215925H801.1828956489877V529.9314619464807H801.4103751764292V529.7312116335896H801.6378547038707V529.3688539245485H801.8653342313122V528.8634602777281H802.0928137587538V528.3008522557959H802.3202932861952V528.071994755349H802.5477728136368V527.3091364205256H802.7752523410783V527.1279575660051H803.0027318685197V526.9181715239287H803.2302113959613V526.498599439776H803.4576909234028V526.4604565230347H803.6851704508443V526.2411347517731H803.9126499782858V526.1553131891054H804.1401295057274V526.0408844388819H804.3676090331688V525.8215626676202H804.5950885606103V525.8120269384349H804.8225680880519V525.5354907920615H805.0500476154933V525.421062041838H805.2775271429349V525.3161690207999H805.5050066703764V525.030097145241H805.7324861978179V524.6772751653853H805.9599657252594V524.4579533941236H806.187445252701V524.2863102687884H806.6424043075839V524.2577030812325H806.8698838350255V524.2100244353061H807.0973633624669V524.1146671434532H807.3248428899085V524.0574527683414H807.55232241735V523.9430240181179H808.2347609996746V523.8858096430062H808.6897200545575V523.8667381846356H808.9171995819991V523.8190595387091H809.3721586368821V523.685559330115H809.5996381643236V523.5902020382621H809.8271176917651V523.5234519339651H810.2820767466479V523.4185589129269H810.9645153289725V523.3994874545563H811.4194743838556V523.3708802670004H811.8744334387386V523.3422730794446H812.1019129661801V523.2945944335181H812.3293924936215V523.2469157875915H812.5568720210631V523.227844329221H813.0118310759461V523.0275940163299H813.2393106033876V522.9894510995888H813.4667901308292V522.9036295369211H813.6942696582706V522.86548662018H813.9217491857121V522.8368794326242H814.3767082405951V522.8082722450682H814.6041877680367V522.7892007866976H814.8316672954782V522.6652363072889H815.0591468229197V522.5222003695095H815.2866263503612V522.3887001609155H815.5141058778028V522.3505572441742H815.7415854052442V522.2933428690625H815.9690649326857V522.245664223136H816.4240239875687V522.2361284939508H816.6515035150103V522.1979855772096H816.8789830424518V522.1598426604685H817.1064625698933V522.1216997437273H817.3339420973348V522.2551999523214H817.5614216247762V522.2361284939508H817.7889011522178V522.2170570355802H818.0163806796593V522.1598426604685H818.2438602071009V522.1407712020979H818.4713397345423V522.0549496394302H818.6988192619839V522.0263424518744H818.9262987894253V522.0072709935038H819.1537783168669V521.9977352643185H819.3812578443084V521.9500566183921H819.6087373717497V521.8737707849098H819.8362168991913V521.8546993265392H820.0636964266328V521.0346266166041H820.2911759540743V521.0250908874187H820.7461350089574V520.967876512307H820.9736145363988V520.90112640801H821.2010940638403V520.4338756779307H821.4285735912819V520.3289826568925H821.6560531187233V520.014303593778H821.8835326461649V519.6996245306634H822.1110121736064V519.5184456761427H822.3384917010479V519.4707670302164H822.5659712284894V519.3658740091781H822.793450755931V519.2514452589547H823.0209302833724V519.2228380713988H823.2484098108139V519.2037666130282H823.4758893382555V519.1942308838429H823.7033688656969V519.1846951546576H823.9308483931385V519.0798021336194H824.15832792058V519.0225877585077H824.3858074480215V519.0130520293224H824.613286975463V518.803265987246H825.2957255577875V518.6697657786519H825.9781641401121V518.5171941116872H826.2056436675535V518.1929793193874H826.4331231949951V518.1643721318314H826.6606027224366V517.430120984564H826.888082249878V517.229870671673H827.1155617773196V516.5623696287025H827.7980003596441V516.5337624411467H828.4804389419686V516.476548066035H828.9353979968515V516.4193336909232H830.7552342163837V516.3907265033673H830.9827137438251V516.3239763990703H831.4376727987081V515.8853328565469H831.6651523261497V515.5992609809881H831.8926318535912V515.1796888968353H832.1201113810328V515.0271172298707H832.3475909084742V514.874545562906H833.2575090182403V514.8268669169796H834.3949066554478V514.7982597294236H834.6223861828893V514.7887240002384H835.0773452377723V514.2261159783062H835.3048247652139V514.0354013946004H835.5323042926553V513.9305083735622H835.7597838200969V513.8637582692652H835.9872633475384V513.8160796233387H836.6697019298629V513.4823291018536H836.8971814573044V512.9483282674772H837.1246609847459V512.5859705584362H837.3521405121875V512.5096847249538H837.5796200396289V511.64193336909227H837.8070995670703V510.9553608677513H838.0345790945119V510.42136003337504H838.2620586219533V510.2020382621134H838.4895381493949V509.33428690625186H838.7170176768363V509.11496513499014H838.9444972042779V508.8098218010608H839.1719767317194V508.4569998212051H839.399456259161V507.95160617438466H839.6269357866024V507.89439179927285H839.8544153140439V507.74182013230825H840.0818948414855V507.3508552357113H840.3093743689269V507.1696763811908H840.5368538963685V506.82639013052034H840.76433342381V506.33053221288515H840.9918129512515V506.0349246081412H841.219292478693V505.75838846176765H841.4467720061344V505.68210262828535H841.674251533576V505.6153525239883H841.9017310610175V505.4627808570237H842.129210588459V505.1957804398355H842.3566901159005V505.10042314798255H842.5841696433421V505.02413731450025H842.8116491707835V505.014601585315H843.0391286982251V504.94785148101795H843.2666082256666V504.8620299183503H843.494087753108V504.6141009595327H843.7215672805496V504.1563859586388H843.9490468079911V503.9275284581918H844.1765263354326V503.8703140830801H844.4040058628741V503.77495679122717H844.6314853903157V503.51749210322424H844.8589649177571V503.33631324870373H845.0864444451986V503.279098873592H845.3139239726402V502.9548840812921H845.5414035000816V502.6974193932892H845.7688830275232V502.59252637225103H845.9963625549647V502.23016866320995H846.2238420824062V501.90595387091H846.4513216098477V501.6389534537219H846.6788011372893V501.02866678586327H846.9062806647306V500.790273556231H847.1337601921721V499.7032004291078H847.3612397196136V499.283628344955H847.5887192470551V498.66380594791104H847.8161987744967V498.33005542642593H848.0436783019381V497.7102330293819H848.2711578293797V496.85201740270577H848.4986373568212V495.4025865665416H848.7261168842626V493.76244114667145H848.9535964117042V492.6944394779188H849.1810759391457V491.90297395553966H849.4085554665872V491.14011562071636H849.6360349940287V490.52029322367247H849.8635145214703V489.36646999225223H850.0909940489117V488.68943322009653H850.3184735763533V486.9157875916324H850.5459531037948V485.99082186065914H850.7734326312362V484.58906967042134H851.0009121586778V483.10149591751593H851.2283916861193V481.5471720603135H851.4558712135608V480.79384945467547H851.6833507410023V479.48745455629063H851.9108302684439V478.2287383038322H852.1383097958853V477.15120090589426H852.3657893233268V475.9687704869182H852.5932688507684V474.7768043387568H852.8207483782098V472.7361582931045H853.0482279056514V471.21044162345794H853.2757074330929V469.96126110018474H853.5031869605344V467.7775791167531H853.7306664879759V466.49979140592404H853.9581460154175V465.39364682043026H854.1856255428589V465.04082484057454H854.4131050703004V464.7547529650158H854.640584597742V464.0681804636748H854.8680641251834V463.06692889921925H855.095543652625V462.2754633768401H855.3230231800665V461.9607843137255H855.550502707508V461.6270337922403H855.7779822349495V460.8164968114906H856.005461762391V460.5113534775612H856.2329412898324V460.10131712259374H856.4604208172739V459.62453066332915H856.6879003447154V459.05238691221166H856.9153798721569V458.3181357649443H857.1428593995985V457.8413493056797H857.3703389270399V457.0880267000417H857.5978184544815V456.26795399010666H857.825297981923V455.88652482269504H858.0527775093644V455.7530246141009H858.280257036806V454.1987007568985H858.5077365642475V453.5407354431134H858.735216091689V452.73019846236366H858.9626956191305V452.4059836700638H859.1901751465721V451.43333929316407H859.4176546740135V451.00423147982593H859.6451342014551V449.8980868943322H859.8726137288966V449.0112640801001H860.100093256338V447.6476548066035H860.3275727837796V446.7989749091126H860.5550523112211V446.08379522021573H860.7825318386626V445.66422313606296H861.0100113661041V445.3018654270219H861.2374908935457V444.4913284462721H861.4649704209871V444.0050062578223H861.6924499484286V443.5854341736695H861.9199294758702V443.4614696942607H862.1474090033116V443.4328625067048H862.3748885307532V443.1658620895167H862.6023680581947V442.66046844269624H862.8298475856362V441.95482448298475H863.0573271130777V441.6306096906848H863.2848066405193V441.277787710829H863.5122861679607V440.81053698074976H863.7397656954022V440.67703677215565H863.9672452228438V439.5708921866619H864.1947247502852V439.20853447762084H864.4222042777268V438.2263543715359H864.6496838051683V437.32046009893315H864.8771633326098V436.462244472257H865.1046428600513V435.6612432206925H865.3321223874926V434.955599260981H865.5596019149342V434.59324155193997H865.7870814423757V433.1819536325168H866.0145609698172V432.3523451933965H866.2420404972587V431.8946301925025H866.4695200247003V431.2843435246439H866.6969995521417V430.51194946063526H866.9244790795833V429.9874843554443H867.1519586070248V429.44394779188275H867.3794381344662V428.9480898742476H867.6069176619078V427.9659097681626H867.8343971893493V427.1172298706717H868.0618767167908V425.5342988259133H868.2893562442323V424.5044400739019H868.5168357716739V423.6462244472257H868.7443152991153V422.9215090291436H868.9717948265568V422.68311579951126H869.1992743539984V422.282615173729H869.4267538814398V421.2622921509029H869.6542334088814V419.8510042314798H869.8817129363229V418.19178735323914H870.1091924637644V416.8567852672984H870.3366719912059V415.59806901484H870.5641515186475V414.51099588771683H870.7916310460889V414.0723523451934H871.0191105735304V413.33810119792594H871.246590100972V411.7074915072412H871.4740696284134V410.9064902556767H871.701549155855V410.1054890041123H871.9290286832965V409.28541629417725H872.156508210738V408.7514154598009H872.3839877381795V408.36998629238934H872.611467265621V407.473627748972H872.8389467930625V406.691697955778H873.066426320504V405.73812503724895H873.2939058479456V404.53662315990226H873.521385375387V403.9644794087848H873.7488649028286V403.0490494069968H873.97634443027V402.74390607306754H874.2038239577116V402.03826211335604H874.431303485153V401.57101138327664H874.6587830125944V399.94993742177724H874.886262540036V399.49222242088325H875.1137420674775V398.9677573156922H875.341221594919V397.976041480422H875.5687011223605V396.88896835329876H875.7961806498021V395.5348948089874H876.0236601772435V394.53364324453185H876.2511397046851V393.59914178437333H876.4786192321266V392.59789021991776H876.706098759568V391.13892365456826H876.9335782870096V389.9564932355921H877.161057814451V388.34495500327796H877.3885373418926V386.66666666666663H877.6160168693341V385.95148697776983H877.8434963967757V384.9979140592407H878.0709759242171V383.91084093211754H878.2984554516586V383.1575183264795H878.5259349791002V382.9858752011443H878.7534145065416V382.2039454079504H878.9808940339832V380.81172894689786H879.2083735614247V380.40169259193044H879.4358530888662V379.38136956910427H879.6633326163077V378.49454675487215H879.8908121437491V377.474223732046H880.1182916711907V376.64461529292566H880.3457711986322V376.3966863341081H880.5732507260738V375.2714702902437H880.8007302535152V374.37511174682635H881.0282097809568V373.9555396626736H881.2556893083982V373.2498957029621H881.4831688358398V372.71589486858574H881.7106483632813V372.36307288872996H881.9381278907227V371.5430001787949H882.1656074181643V370.6371059061923H882.3930869456058V370.02681923833364H882.6205664730473V369.2448894451398H882.8480460004888V368.4724953811312H883.0755255279304V368.3008522557959H883.3030050553718V368.1768877763871H883.5304845828133V367.46170808749025H883.7579641102548V366.60349246081415H883.9854436376962V365.3161690207998H884.2129231651378V364.6772751653853H884.4404026925793V364.2195601644913H884.6678822200208V363.65695214255913H884.8953617474623V362.8750223493653H885.1228412749039V362.3982358901007H885.3503208023453V361.6639847428333H885.5778003297868V360.68180463674827H885.8052798572284V359.44215984266043H886.0327593846698V358.84140890398714H886.2602389121114V357.6780499433816H886.4877184395529V357.08683473389357H886.7151979669944V355.26551045950293H886.9426774944359V354.79825972942365H887.1701570218775V354.32147327015906H887.3976365493189V353.7684009774122H887.6251160767604V353.1962572262948H887.852595604202V352.4238631622862H888.0800751316434V352.2808272245069H888.307554659085V351.82311222361284H888.5350341865264V351.4321473270159H888.762513713968V349.79200190714585H888.9899932414095V349.10542940580484H889.2174727688509V348.8002860718755H889.4449522962925V348.2472137791287H889.672431823734V347.47481971512013H889.8999113511755V346.27331783777345H890.127390878617V345.84421002443537H890.3548704060586V345.3483521068002H890.5823499335V344.5759580427916H890.8098294609416V344.0705643959712H891.0373089883831V343.965671374933H891.2647885158245V343.87031408308H891.4922680432661V343.6700637701889H891.7197475707076V343.212348769295H891.9472270981491V342.8118481435127H892.1747066255906V342.2683115799511H892.4021861530322V341.59127480779546H892.6296656804736V341.2003099111986H892.857145207915V340.6758448060075H893.0846247353566V339.2645568865844H893.312104262798V338.96894928184037H893.5395837902396V338.31098396805527H893.767063317681V337.5195184456761H893.9945428451226V336.3466237558854H894.2220223725641V335.450265212468H894.4495019000057V334.8018356278681H894.6769814274471V333.22844031229516H894.9044609548886V332.39883187317474H895.1319404823302V331.96972405983666H895.3594200097716V331.2545443709399H895.5868995372132V330.8254365576018H895.8143790646546V330.21514988974315H896.0418585920962V330.1388640562608H896.2693381195377V329.89093509744316H896.4968176469791V329.3092556171405H896.7242971744207V328.62268311579953H896.9517767018622V327.49746707193515H897.1792562293037V326.48667977829433H897.4067357567452V325.58078550569167H897.6342152841868V325.2661064425771H897.8616948116282V324.3602121699744H898.0891743390698V323.51153227248346H898.3166538665113V322.6628523749925H898.5441333939527V321.96674414446636H898.7716129213943V321.30877883068126H898.9990924488358V320.60313487096965H899.2265719762773V319.6114190356994H899.4540515037188V319.0106680970261H899.6815310311604V318.4957387210203H899.9090105586018V318.0666309076822H900.1364900860433V317.22748673937656H900.3639696134849V316.88420048870614H900.5914491409263V315.997377674474H900.8189286683679V315.36801954824483H901.0464081958094V314.79587579712734H901.2738877232509V314.5574825674951H901.5013672506924V314.128374754157H901.728846778134V313.6611240240777H901.9563263055753V312.79337266821625H902.1838058330168V312.28797902139576H902.4112853604584V311.7539781870195H902.6387648878998V311.0769414148638H902.8662444153414V309.60843912032897H903.0937239427828V309.18886703617613H903.3212034702244V308.9790809940998H903.5486829976659V308.46415161809404H903.7761625251075V307.83479349186484H904.0036420525489V306.9384349484475H904.2311215799904V306.0992907801418H904.458601107432V305.29828952857736H904.6860806348734V304.6212527564217H904.913560162315V304.24935931819533H905.1410396897564V303.73442994218965H905.368519217198V303.0287859824781H905.5959987446395V302.3231420227665H905.8234782720809V301.7223910840932H906.0509577995225V300.6639251445259H906.278437326964V299.79617378866436H906.5059168544055V299.1382084748793H906.733396381847V298.6328148280589H906.9608759092886V297.9080994099767H907.18835543673V297.717384826271H907.4158349641716V296.25841826092136H907.6433144916131V295.8293104475833H907.8707940190545V294.3226652363073H908.0982735464961V293.1688420048871H908.3257530739376V292.10084033613447H908.5532326013791V291.33798200131116H908.7807121288206V290.77537397937897H909.0081916562622V289.4499076226235H909.2356711837036V287.65719053578874H909.4631507111451V287.04690386793015H909.6906302385867V286.3317241790333H909.9181097660281V285.74050896954526H910.1455892934697V284.89182907205435H910.3730688209112V284.3864354252339H910.6005483483527V283.7284701114488H910.8280278757942V282.49836104654634H911.0555074032357V281.46850229453486H911.2829869306771V280.7628583348233H911.5104664581186V279.95232135407355H911.7379459855601V279.41832051969726H911.9654255130016V278.5219619762799H912.1929050404432V277.5207104118243H912.4203845678846V276.47178020144224H912.6478640953262V275.6040288455808H912.8753436227677V274.0687764467489H913.1028231502091V273.3631324870374H913.3303026776507V272.84820311103164H913.5577822050922V272.3809523809524H913.7852617325337V271.5990225877585H914.0127412599752V271.27480779545857H914.2402207874168V271.04595029501166H914.4677003148582V270.6454496692294H914.6951798422998V270.31169914774415H914.9226593697413V269.4439477918827H915.1501388971827V268.38548185231537H915.3776184246243V267.5368019548245H915.6050979520658V265.6582633053221H915.8325774795073V265.2768341379105H916.0600570069488V264.77144049109H916.2875365343904V264.29465403182553H916.5150160618318V264.0181178854521H916.7424955892733V263.655760176411H916.9699751167149V263.0073305918112H917.1974546441563V262.61636569521426H917.4249341715979V262.23493652780263H917.6524136990394V261.5960426723881H917.8798932264809V261.10972048393825H918.1073727539224V260.73782704571187H918.334852281364V260.30871923237385H918.5623318088054V259.72703975207105H918.7898113362469V257.8961797484952H919.0172908636885V256.4276774539603H919.2447703911299V255.08313963883427H919.4722499185715V254.0056022408964H919.699729446013V252.5752428631027H919.9272089734545V252.1079921330234H920.1546885008959V251.56445556946184H920.3821680283373V250.8206686930091H920.6096475557789V249.85756004529472H920.8371270832204V248.818165564098H921.0646066106619V247.78830681208655H921.2920861381034V246.3198045175517H921.519565665545V245.75719649561952H921.7470451929864V245.28041003635497H921.974524720428V244.593837535014H922.2020042478695V244.2791584718994H922.4294837753109V242.91554919840274H922.6569633027525V242.2480481554324H922.884442830194V241.26586804934738H923.1119223576355V240.47440252696822H923.339401885077V239.04404314917457H923.5668814125186V238.40514929376005H923.79436093996V237.87114845938376H924.0218404674015V237.2131831455987H924.2493199948431V236.90803981166937H924.4767995222845V236.07843137254903H924.7042790497261V235.2106800166875H924.9317585771676V234.17128553549077H925.1592381046091V233.60867751355863H925.3867176320506V232.9888551165147H925.6141971594922V232.67417605340012H925.8416766869336V232.01621073961502H926.0691562143751V230.91960188330654H926.2966357418167V228.8980272960248H926.5241152692581V228.2686691697956H926.7515947966997V227.496275105787H926.9790743241412V226.88598843792832H927.2065538515827V225.6368079146552H927.4340333790242V224.43530603730852H927.6615129064656V223.59616186900294H927.8889924339072V222.72841051314145H928.1164719613487V222.39465999165623H928.3439514887903V220.56379998808035H928.5714310162317V219.79140592407174H928.7989105436733V218.60897550509566H929.0263900711147V217.41700935693424H929.2538695985563V216.4348292508493H929.4813491259977V215.40497049883786H929.7088286534391V214.98539841468505H929.9363081808807V214.23207580904705H930.1637877083222V213.13546695273854H930.3912672357637V212.43935872221232H930.6187467632052V211.50485726205372H930.8462262906468V210.44639132248645H931.0737058180882V209.25442517432504H931.3011853455298V208.06245902616362H931.5286648729713V206.64163537755527H931.7561444004127V204.82031110316464H931.9836239278543V204.21956016449136H932.2111034552958V202.47452172358305H932.4385829827373V200.77716192860123H932.6660625101788V199.06073067524883H932.8935420376204V198.20251504857262H933.1210215650618V195.68508254365577H933.3485010925033V195.19876035520593H933.5759806199449V194.39775910364142H933.8034601473863V193.44418618511236H934.0309396748279V192.8338995172537H934.2584192022694V191.63239763990703H934.4858987297109V190.1543596161869H934.7133782571524V186.35913940044105H934.940857784594V185.92049585791764H935.1683373120354V185.03367304368555H935.3958168394769V184.0038142916741H935.6232963669185V183.01209845640386H935.8507758943599V182.70695512247454H936.0782554218015V182.06806126706002H936.305734949243V180.6663090768222H936.5332144766845V179.8462363668872H936.760694004126V179.0452351153227H936.9881735315674V178.1584123010906H937.215653059009V176.99505334048516H937.4431325864505V175.86983729662077H937.670612113892V175.1641933369092H937.8980916413335V174.239227605936H938.1255711687751V173.73383395911557H938.3530506962165V173.37147625007447H938.580530223658V172.8946897908099H938.8080097510995V172.61815364443646H939.0354892785409V172.05554562250433H939.2629688059825V171.37850885034862H939.490448333424V170.76822218249004H939.7179278608655V170.1579355146314H939.945407388307V169.91000655581382H940.1728869157486V169.5285773884022H940.40036644319V169.25204124202875H940.6278459706315V168.84200488706122H940.8553254980731V168.08868228142322H941.0828050255145V167.73586030156747H941.3102845529561V167.39257405089697H941.5377640803976V166.82043029977947H941.7652436078391V166.22921509029146H941.9927231352806V165.59985696406224H942.2202026627222V164.58906967042134H942.4476821901636V163.6068895643364H942.6751617176051V162.63424518743665H942.9026412450467V161.74742237320464H943.1301207724881V161.27063591394005H943.3576002999297V159.77352643184932H943.5850798273711V158.74366767983787H943.8125593548127V158.39084569998212H944.0400388822542V157.96173788664404H944.2675184096956V157.0177006973002H944.4949979371372V156.25484236247692H944.7224774645787V155.61594850706237H944.9499569920202V155.32987663150365H945.1774365194617V155.17730496453902H945.4049160469033V154.99612611001845H945.6323955743447V154.4811967340127H945.8598751017863V153.8899815245247H946.0873546292278V153.61344537815125H946.3148341566692V152.74569402228977H946.5423136841108V152.5263722510281H946.7697932115523V152.24983610465466H946.9972727389938V151.8493354788724H947.2247522664353V151.3344061028667H947.4522317938769V150.39990464270815H947.6797113213182V149.86590380833184H947.9071908487597V148.9790809940998H948.1346703762013V148.39740151379704H948.3621499036427V147.13868526133857H948.5896294310843V146.65236307288873H948.8171089585258V145.4890041122832H949.0445884859673V145.12664640324218H949.2720680134088V144.7356815066452H949.4995475408504V144.11585910960127H949.7270270682918V143.7439656713749H949.9545065957333V143.40067942070442H950.1819861231749V142.9906430657369H950.4094656506163V142.4852494189165H950.6369451780579V141.40771202097858H950.8644247054993V140.70206806126706H951.0919042329409V140.406460456523H951.3193837603824V139.83431670540557H951.546863287824V139.2812444126587H951.7743428152654V138.98563680791466H952.0018223427069V138.07974253531202H952.2293018701484V136.4682043029978H952.4567813975899V135.5337028428393H952.6842609250315V134.8280588831277H952.9117404524729V134.60873711186602H953.1392199799145V134.3035937779367H953.366699507356V133.9126288813398H953.5941790347974V133.54073544311342H953.821658562239V133.26419929673997H954.0491380896805V132.83509148340184H954.276617617122V132.32969783658146H954.5040971445635V131.79569700220512H954.7315766720051V131.36658918886707H954.9590561994465V131.070981584123H955.186535726888V130.55605220811728H955.4140152543296V129.33547887240005H955.641494781771V128.40097741224153H955.8689743092126V127.67626199415933H956.0964538366541V127.31390428511831H956.3239333640956V126.7703677215567H956.5514128915371V126.58918886703619H956.7788924189786V126.2268311579951H957.00637194642V125.74050896954525H957.2338514738615V124.89182907205438H957.461331001303V124.22432802908396H957.6888105287445V123.4328625067048H957.9162900561861V122.8321115680315H958.1437695836275V122.22182490017283H958.3712491110691V121.69735979498184H958.5987286385106V120.69610823052628H958.8262081659522V119.6567137493295H959.0536876933936V118.97014124798852H959.2811672208351V118.26449728827701H959.5086467482766V118.00703260027412H959.7361262757181V117.84492520412422H959.9636058031597V117.62560343286248H960.1910853306011V116.94856666070686H960.4185648580427V115.92824363788068H960.6460443854842V115.55635019965432H960.8735239129256V115.15584957387213H961.1010034403672V114.75534894808987H961.3284829678087V114.44066988497528H961.5559624952502V114.02109780082247H961.7834420226917V113.83038321711663H962.0109215501333V113.71595446689315H962.2384010775747V112.96263186125515H962.4658806050163V112.25698790154357H962.6933601324578V111.51320102509091H962.9208396598992V110.67405685678524H963.1483191873408V110.34984206448537H963.3757987147823V108.87180404076524H963.6032782422238V108.11848143512724H963.8307577696653V107.93730258060673H964.0582372971069V107.51773049645392H964.2857168245483V107.38423028785984H964.5131963519898V107.33655164193334H964.7406758794314V107.06955122474524H964.9681554068728V106.78347934918646H965.1956349343144V105.98247809762202H965.4231144617559V105.28636986709579H965.6505939891974V104.71422611597829H965.8780735166389V104.38047559449315H966.1055530440804V103.8750819476727H966.3330325715218V103.45550986351991H966.5605120989633V102.93104475832884H966.7879916264048V101.76768579772337H967.0154711538463V101.51975683890575H967.2429506812879V101.0620418380118H967.4704302087293V100.62339829548839H967.6979097361709V100.29918350318852H967.9253892636124V99.64121818940343H968.1528687910538V98.03921568627449H968.3803483184954V97.42892901841584H968.6078278459369V96.3418558912927H968.8353073733784V96.12253412003102H969.0627869008199V95.21663984742833H969.2902664282615V94.35842422075211H969.5177459557029V93.85303057393173H969.7452254831445V92.51802848799096H969.972705010586V91.53584838190594H970.2001845380274V90.72531140115623H970.427664065469V89.78127421181237H970.6551435929105V88.88491566839501H970.882623120352V87.72155670778947H971.1101026477935V86.75844806007507H971.3375821752351V85.88116097502831H971.5650617026765V85.39483878657848H971.792541230118V83.55444305381725H972.0200207575596V82.69622742714104H972.247500285001V82.07640503009712H972.4749798124426V81.09422492401217H972.7024593398841V79.60665117110676H972.9299388673256V78.44329221050124H973.1574183947671V77.16550449967224H973.3848979222087V76.58382501936947H973.6123774496501V76.07843137254902H973.8398569770916V75.6874664759521H974.0673365045332V75.2678943917993H974.2948160319746V74.7243578282377H974.5222955594162V73.52285595089101H974.7497750868577V71.55849573872104H974.9772546142992V70.32838667381847H975.2047341417406V68.82174146254245H975.4322136691821V67.97306156505158H975.6596931966236V67.41045354311936H975.8871727240651V67.00041718815184H976.1146522515066V66.67620239585197H976.3421317789481V65.57959353954348H976.5696113063897V64.12062697419397H976.7970908338311V63.500804577150035H977.0245703612727V63.186125514035375H977.2520498887142V62.73794624232669H977.4795294161556V61.80344478216817H977.7070089435972V60.66869300911853H977.9344884710387V58.80922581798676H978.1619679984802V57.874724357828235H978.3894475259217V57.588652482269524H978.6169270533633V56.64461529292566H978.8444065808047V55.56707789498778H979.0718861082463V54.56582633053222H979.2993656356878V53.86971810000598H979.5268451631292V53.53596757852077H979.7543246905708V53.17360986947968H979.9818042180123V52.258179867691766H980.2092837454538V52.06746528398591H980.4367632728953V51.74325049168604H980.6642428003369V51.03760653197447H980.8917223277783V49.7693545503308H981.1192018552198V49.34024673699267H981.3466813826614V48.73949579831935H981.5741609101028V48.34853090172238H981.8016404375444V47.85267298408726H982.0291199649859V47.28052923296977H982.2565994924274V46.71792121103762H982.4840790198689V46.422313606293564H982.7115585473105V45.85970558436141H982.9390380747519V45.19220454139106H983.1665176021934V44.25770308123247H983.393997129635V44.038381309970795H983.6214766570764V43.637880684188545H983.848956184518V43.38995172537099H984.0764357119594V42.76059359914179H984.3039152394009V42.65570057810359H984.5313947668424V41.921449430836134H984.7588742942838V40.68180463674829H984.9863538217254V40.243161094224945H985.2138333491669V39.785446093330926H985.4413128766084V38.73651588294893H985.6687924040499V38.116693485905H985.8962719314915V37.43012098456404H986.1237514589329V36.67679837892604H986.3512309863745V35.847189939805716H986.578710513816V34.92222420883246H986.8061900412574V34.46450920793851H987.033669568699V34.24518743667677H987.2611490961405V33.74932951904166H987.488628623582V32.37618451635973H987.7161081510235V31.260504201680696H987.9435876784651V30.926753680195485H988.1710672059065V30.650217533822044H988.853505788231V29.286608260325387H989.0809853156726V29.143572322546028H989.308464843114V28.943322009654903H989.5359443705556V28.914714822099018H990.6733420077632V28.895643363728475H990.9008215352046V28.8861076345432H991.1283010626462V28.895643363728475H991.5832601175292V28.790750342690274H991.8107396449707V28.72400023839323H992.9481372821782V28.71446450920796H993.1756168096198V28.70492878002262H993.6305758645027V28.695393050837346H994.3130144468272V28.676321592466802H995.2229325565933V28.65725013409619H995.4504120840347V28.619107217355033H998.1801664133328V28.600035758984422H998.4076459407744V28.59050002979915H998.6351254682158V28.571428571428605H1000V28.571428571428605"
                 style="fill: none; stroke: #1f77b4;"
                 id="path215" />
            </g>
          </g>
        </g>
        <g
           class="mark-rect"
           id="g217">
          <rect
             transform="translate(0,0)"
             width="0"
             height="0"
             style="fill: grey; fill-opacity: 0.05; stroke: grey; stroke-opacity: 0.6; stroke-dasharray: 4,6;"
             id="rect219" />
        </g>
        <g
           class="mark-text reset"
           id="g221">
          <text
             text-anchor="start"
             transform="translate(30,16)"
             style="font: 14px sans-serif; fill: grey; fill-opacity: 0;"
             id="text223">(reset zoom)</text>
        </g>
        <g
           class="mark-group"
           id="g225">
          <g
             transform="translate(16,30)"
             id="g227">
            <rect
               class="background"
               width="204"
               height="16"
               style="pointer-events: none; fill: none;"
               id="rect229" />
            <g
               class="mark-text"
               style="pointer-events: none;"
               id="g231" />
            <g
               class="mark-symbol"
               style="pointer-events: none;"
               id="g233">
              <path
                 transform="translate(7.5,7)"
                 d="M0,3.989422804014327A3.989422804014327,3.989422804014327 0 1,1 0,-3.989422804014327A3.989422804014327,3.989422804014327 0 1,1 0,3.989422804014327Z"
                 style="fill: #1f77b4; stroke: transparent; stroke-width: 1; opacity: 1;"
                 id="path235" />
            </g>
            <g
               class="mark-text"
               style="pointer-events: none;"
               id="g237">
              <text
                 text-anchor="start"
                 transform="translate(16,11)"
                 style="font: 14px sans-serif; fill: #000; opacity: 1;"
                 id="text239">relation locality=townland</text>
            </g>
          </g>
        </g>
      </g>
    </g>
  </g>
</svg>
